<?xml version="1.0" encoding="UTF-8" standalone="no"?>
<!-- Created with Inkscape (http://www.inkscape.org/) -->

<svg
   width="128.00002"
   height="127.99999"
   viewBox="0 0 33.866671 33.866665"
   version="1.1"
   id="svg1"
   inkscape:version="1.3.2 (091e20ef0f, 2023-11-25)"
   sodipodi:docname="rymdport-grid.svg"
   inkscape:export-filename="rymdport-grid.png"
   inkscape:export-xdpi="96"
   inkscape:export-ydpi="96"
   xmlns:inkscape="http://www.inkscape.org/namespaces/inkscape"
   xmlns:sodipodi="http://sodipodi.sourceforge.net/DTD/sodipodi-0.dtd"
   xmlns="http://www.w3.org/2000/svg"
   xmlns:svg="http://www.w3.org/2000/svg">
  <sodipodi:namedview
     id="namedview1"
     pagecolor="#ffffff"
     bordercolor="currentColor"
     borderopacity="0.25"
     inkscape:showpageshadow="2"
     inkscape:pageopacity="0.0"
     inkscape:pagecheckerboard="0"
     inkscape:deskcolor="#d1d1d1"
     inkscape:document-units="px"
     inkscape:zoom="8"
     inkscape:cx="60.875"
     inkscape:cy="65.3125"
     inkscape:window-width="2560"
     inkscape:window-height="1371"
     inkscape:window-x="0"
     inkscape:window-y="0"
     inkscape:window-maximized="1"
     inkscape:current-layer="layer1" />
  <defs
     id="defs1" />
  <g
     inkscape:label="Layer 1"
     inkscape:groupmode="layer"
     id="layer1"
     transform="translate(-32.279167,-138.64166)">
    <circle
       cx="49.212509"
       cy="155.575"
       r="15.743801"
       id="circle2892"
       style="display:inline;opacity:0.2;fill:none;fill-opacity:1;stroke:currentColor;stroke-width:0.2619375;stroke-linecap:butt;stroke-linejoin:miter;stroke-miterlimit:4;stroke-dasharray:none;stroke-dashoffset:0;stroke-opacity:1;marker:none;marker-start:none;marker-mid:none;marker-end:none;paint-order:normal;enable-background:new" />
    <rect
       ry="2.096508"
       rx="2.096508"
       y="141.94769"
       x="35.585205"
       height="27.254602"
       width="27.254602"
       id="rect2896"
       style="display:inline;opacity:0.2;fill:none;fill-opacity:1;stroke:currentColor;stroke-width:0.2619375;stroke-linecap:butt;stroke-linejoin:miter;stroke-miterlimit:4;stroke-dasharray:none;stroke-dashoffset:0;stroke-opacity:1;marker:none;marker-start:none;marker-mid:none;marker-end:none;paint-order:normal;enable-background:new" />
    <g
       id="g1"
       transform="matrix(0.23437499,0,0,0.23437499,14.858013,105.34551)">
      <circle
         r="65.902657"
         cy="214.31248"
         cx="146.57916"
         id="path1764"
         style="fill:#214478;stroke:#000000;stroke-width:3.66136;stroke-miterlimit:4;stroke-dasharray:none" />
      <ellipse
         ry="12.806797"
         rx="38.420387"
         cy="244.38301"
         cx="146.70013"
         id="path1424-5-27-2-1"
         style="fill:#f2f2f2;stroke:#000000;stroke-width:3.175;stroke-miterlimit:4;stroke-dasharray:none" />
      <path
         sodipodi:nodetypes="sccscssscs"
         id="path1967-9-7-3"
         style="fill:#f2f2f2;stroke:#000000;stroke-width:3.06221;stroke-miterlimit:4;stroke-dasharray:none"
         d="m 164.24257,213.03619 c 0,-10.55181 4.24471,-20.44283 11.37698,-26.51061 l -57.84575,0.041 c 7.13229,6.06779 11.37703,15.9588 11.37703,26.51061 0,10.96957 -4.50334,20.66606 -11.02511,26.52335 -1.20771,1.07325 -2.0198,2.2305 -2.0198,3.39933 0,4.88327 13.87123,8.84194 30.98223,8.84194 17.11103,0 30.98229,-3.95867 30.98229,-8.84194 0,-1.17983 -0.82741,-2.34774 -2.43343,-3.4349 -6.8911,-5.86275 -11.39444,-15.55924 -11.39444,-26.5288 z" />
      <ellipse
         style="fill:#f2f2f2;stroke:#000000;stroke-width:3.175;stroke-miterlimit:4;stroke-dasharray:none"
         id="path1424-5-27-29"
         cx="146.70013"
         cy="184.48393"
         rx="38.420387"
         ry="12.806797" />
      <ellipse
         style="fill:#f2f2f2;fill-opacity:1;stroke:#000000;stroke-width:2.64583;stroke-miterlimit:4;stroke-dasharray:none"
         id="path1424-5-2-1"
         cx="146.70013"
         cy="184.72899"
         rx="31.602049"
         ry="8.2414846" />
      <g
         transform="matrix(0.26458334,0,0,0.26458334,-52.077387,153.96627)"
         id="g2519">
        <path
           id="path2497"
           style="fill:none;stroke:#000000;stroke-width:10;stroke-miterlimit:4;stroke-dasharray:10, 10;stroke-dashoffset:0"
           d="m 816.74867,359.6224 c 0.44427,-1.50013 0.67383,-3.03201 0.67383,-4.58874 0,-4.45922 -1.92469,-8.87334 -5.66058,-12.98231 -16.02993,-22.15841 -26.5055,-58.80656 -26.5055,-100.26633 v 0 c 0,-34.7767 7.50825,-67.65428 20.4314,-90.70717" />
        <path
           d="m 685.82158,359.6224 c -0.44427,-1.50013 -0.67383,-3.03201 -0.67383,-4.58874 0,-4.45922 1.92469,-8.87334 5.66058,-12.98231 16.02993,-22.15841 26.5055,-58.80656 26.5055,-100.26633 v 0 c 0,-34.7767 -7.50825,-67.65428 -20.4314,-90.70717"
           style="fill:none;stroke:#000000;stroke-width:10;stroke-miterlimit:4;stroke-dasharray:10, 10;stroke-dashoffset:0"
           id="path2497-7" />
      </g>
    </g>
  </g>
</svg>
